<svg width="1995" height="1995" viewBox="0 0 1995 1995" fill="none" xmlns="http://www.w3.org/2000/svg">
<g clip-path="url(#clip0_631_5956)">
<rect width="1995" height="1995" fill="#111936"/>
<path d="M816.703 1758.87L308.017 1482.22V1434.49L816.703 1711.14V1758.87Z" fill="#7BB7FF"/>
<path d="M816.703 1711.14L308.017 1434.49L1156.48 1315.26L1665.16 1591.91L816.703 1711.14Z" fill="#BBD2FF"/>
<path d="M1665.16 1591.91L1664.97 1639.64L816.703 1758.87V1711.14L1665.16 1591.91Z" fill="#D5E1FF"/>
<path d="M1306.49 1533.66C1292.46 1520.41 1274.15 1513 1254.86 1512.62L967.887 1508.33C964.575 1508.33 961.458 1506.58 959.899 1503.65L928.143 1450.08C926.389 1446.96 928.337 1443.06 931.844 1442.67L1284.09 1405.66L1310.58 1397.86L1279.8 1381.11L916.453 1419.29C912.557 1419.68 908.855 1417.93 906.907 1414.62L871.838 1355.2L752.801 1371.95L807.741 1485.92C809.3 1489.24 806.572 1492.74 803.065 1492.35L352.242 1428.06L308.407 1434.3L332.37 1447.35L803.455 1517.29C806.767 1517.68 808.326 1521.38 806.572 1524.11L718.901 1657.56L817.872 1711.34L885.866 1701.79L954.054 1554.89C960.289 1541.64 973.731 1533.07 988.343 1533.27L1244.73 1537.16C1264.02 1537.36 1282.33 1544.96 1296.36 1558.2L1375.65 1633.02L1407.02 1628.54L1306.49 1533.66Z" fill="#2E465C"/>
<path d="M1353.18 699.809C1354.74 695.718 1355.72 691.626 1357.08 687.535C1358.25 684.223 1359.42 680.716 1360.39 677.404C1361.75 672.729 1362.53 668.053 1363.7 663.377C1364.48 660.065 1365.26 656.948 1365.85 653.636C1366.82 648.181 1367.4 642.726 1368.18 637.076C1368.57 634.543 1368.96 631.815 1369.35 629.283C1370.13 621.1 1370.52 612.917 1370.52 604.54C1370.72 518.623 1329.22 448.875 1266.68 414.781L1174.72 364.906C1237.26 399 1278.76 468.553 1278.56 554.665C1278.56 562.848 1278.18 571.225 1277.4 579.408C1277.2 581.94 1276.62 584.473 1276.42 587.006C1275.64 592.656 1275.06 598.306 1274.08 603.761C1273.5 606.878 1272.72 609.995 1271.94 613.112C1270.97 617.983 1269.99 622.854 1268.63 627.529C1267.65 630.841 1266.49 634.153 1265.51 637.465C1264.15 641.751 1262.78 646.232 1261.23 650.519C1256.94 662.013 1251.68 673.313 1246.03 684.028C1244.86 686.171 1243.89 688.314 1242.72 690.458C1237.85 699.419 1232.39 708.187 1226.55 716.564C1225.77 717.733 1224.79 718.707 1224.01 719.876C1219.14 726.695 1213.88 733.319 1208.43 739.748L1202.58 746.177C1197.52 751.827 1192.06 757.087 1186.61 762.348C1184.85 763.906 1183.3 765.465 1181.74 767.023C1174.14 773.842 1166.15 780.077 1157.97 785.727C1154.46 788.259 1150.76 790.597 1147.06 792.935C1144.72 794.494 1142.38 796.052 1140.04 797.416C1135.37 800.144 1130.5 802.676 1125.43 805.209C1123.68 805.988 1122.12 806.962 1120.37 807.937C1119.59 808.326 1118.61 808.521 1117.83 808.911C1109.26 812.807 1100.69 816.119 1091.73 819.042L1084.13 821.379C1074.39 824.107 1064.45 826.445 1054.32 828.003C1044.39 829.367 1034.84 829.757 1025.29 829.757H1019.45C1010.29 829.562 1001.33 828.588 992.563 827.224C991.004 827.029 989.446 826.64 987.887 826.25C979.899 824.691 972.106 822.743 964.508 820.21C963.145 819.821 961.976 819.431 960.612 819.042C951.65 815.729 942.883 812.028 934.505 807.547L1026.27 857.422C1028.61 858.591 1030.75 859.76 1033.09 860.929C1039.32 864.046 1045.75 866.579 1052.18 868.917C1053.54 869.306 1054.71 869.696 1056.08 870.085C1060.17 871.449 1064.26 872.813 1068.35 873.982C1071.86 874.956 1075.75 875.541 1079.45 876.32C1081.01 876.71 1082.57 876.904 1084.13 877.294C1092.9 878.853 1101.86 879.632 1111.02 879.827H1116.86C1126.41 879.827 1135.95 879.437 1145.89 878.073C1156.02 876.71 1165.96 874.372 1175.7 871.449L1183.3 869.111C1192.26 866.189 1200.83 862.877 1209.4 858.98C1209.99 858.786 1210.77 858.591 1211.35 858.201C1211.55 858.006 1211.74 858.006 1211.93 857.812C1213.69 857.032 1215.25 856.058 1217 855.084C1221.87 852.551 1226.74 850.019 1231.61 847.291C1233.95 845.927 1236.29 844.369 1238.63 842.81C1241.74 840.862 1244.67 839.108 1247.59 837.16C1248.17 836.771 1248.76 836.186 1249.34 835.602C1257.52 829.757 1265.51 823.522 1273.11 816.898C1273.5 816.509 1274.08 816.119 1274.47 815.73L1277.98 812.223C1283.44 807.157 1288.89 801.702 1293.96 796.052C1294.93 794.883 1296.29 793.909 1297.27 792.74C1298.05 791.766 1298.83 790.597 1299.8 789.623C1305.26 783.194 1310.52 776.765 1315.39 769.751C1315.97 768.777 1316.75 767.998 1317.53 767.023C1317.72 766.829 1317.72 766.634 1317.92 766.439C1323.76 758.062 1329.02 749.294 1334.09 740.333C1334.67 739.358 1335.26 738.579 1335.84 737.605C1336.43 736.436 1336.82 735.267 1337.4 734.098C1343.05 723.188 1348.31 712.083 1352.6 700.588C1352.99 700.004 1353.18 700.004 1353.18 699.809Z" fill="#E33F0B" fill-opacity="0.9"/>
<path d="M749.617 632.01C750.786 622.464 751.955 612.723 753.709 603.176C754.878 597.332 756.436 591.682 757.605 586.032C759.554 577.654 761.112 569.277 763.45 561.094C765.203 555.055 767.346 549.21 769.1 543.171C771.633 535.378 773.776 527.585 776.698 519.986C777.672 517.259 778.841 514.726 780.01 511.999C783.907 502.063 787.998 492.321 792.284 482.775C794.232 478.489 796.375 474.398 798.518 470.111C802.61 461.929 806.701 453.746 811.182 445.758C812.935 442.446 814.884 439.329 816.637 436.212C822.092 426.86 827.937 417.704 833.976 408.937L837.483 403.676C839.042 401.533 840.795 399.39 842.354 397.247C851.121 385.168 860.278 373.479 870.019 362.179C873.331 358.282 876.838 354.386 880.345 350.684C889.501 340.748 898.853 331.202 908.594 322.045C911.906 318.928 915.218 315.421 918.725 312.499L926.323 306.069C933.726 299.835 941.13 293.99 948.728 288.146C951.65 286.003 954.378 283.86 957.3 281.716C964.314 276.651 971.522 272.17 978.731 267.494C982.822 264.962 986.913 262.039 991.2 259.701C999.577 254.636 1008.34 250.155 1017.11 245.869C1020.03 244.31 1022.96 242.557 1026.07 241.193C1037.18 235.933 1048.48 231.257 1059.97 226.971C1063.09 225.802 1066.4 224.828 1069.52 223.659C1078.48 220.542 1087.44 217.814 1096.4 215.476C1099.91 214.502 1103.42 213.528 1106.73 212.749C1118.81 209.826 1130.89 207.294 1143.16 205.54C1154.27 203.982 1165.18 203.007 1176.09 202.423C1179.4 202.228 1182.91 202.228 1186.22 202.228L1179.64 208.908C1209.79 210.411 1209.79 210.411 1239.95 211.913C1244.28 205.345 1247.78 205.735 1251.1 206.319C1259.67 207.683 1268.24 209.437 1276.62 211.58C1278.18 211.969 1279.73 212.164 1281.1 212.554C1291.03 215.087 1300.78 218.204 1310.32 221.711C1313.05 222.685 1315.78 223.854 1318.5 225.023C1325.32 227.75 1332.14 230.478 1338.77 233.595C1344.42 236.322 1350.07 238.855 1355.52 241.777L1263.76 191.902C1259.86 189.759 1255.77 187.616 1251.68 185.668C1250.12 184.889 1248.56 184.499 1247 183.72C1240.38 180.603 1233.56 177.68 1226.74 175.148C1224.01 174.173 1221.29 173.005 1218.56 171.836C1209.01 168.329 1199.27 165.212 1189.34 162.679C1189.14 162.679 1188.95 162.484 1188.75 162.484C1187.58 162.094 1186.22 162.094 1185.05 161.705C1176.67 159.562 1168.1 157.808 1159.53 156.444C1156.22 155.86 1152.71 155.47 1149.4 155.081C1142.38 154.107 1135.37 153.327 1128.16 152.938L1117.06 152.353C1109.65 152.158 1102.25 152.158 1094.65 152.353C1091.34 152.353 1088.03 152.353 1084.52 152.548C1073.61 153.132 1062.7 154.107 1051.6 155.665C1039.32 157.419 1027.05 159.951 1015.16 162.874C1011.66 163.653 1008.15 164.627 1004.84 165.601C995.68 167.939 986.913 170.667 977.951 173.784C974.834 174.953 971.522 175.927 968.405 177.096C957.3 181.187 946.39 185.668 935.675 190.734L934.506 191.318C931.389 192.682 928.661 194.435 925.544 195.994C916.777 200.475 908.204 204.956 899.632 209.826C895.346 212.359 891.45 215.087 887.163 217.619C881.708 220.931 876.253 224.243 870.993 227.945C869.24 229.114 867.486 230.672 865.538 231.841C862.616 233.985 859.888 236.128 856.966 238.271C849.367 243.921 841.769 249.96 834.561 256.194L826.963 262.624C825.599 263.793 824.43 264.767 823.066 265.936C820.923 267.884 818.975 270.222 816.832 272.17C807.091 281.327 797.544 290.873 788.582 300.809C786.634 302.952 784.491 304.706 782.738 306.849C781.179 308.602 779.815 310.55 778.451 312.304C768.71 323.604 759.554 335.293 750.786 347.372C749.617 348.931 748.254 350.489 747.085 352.048L745.916 353.801L742.409 359.062C736.369 368.024 730.525 377.18 725.07 386.337C723.121 389.454 721.368 392.766 719.615 395.883C718.056 398.806 716.303 401.533 714.744 404.456C712.016 409.521 709.679 414.976 706.951 420.042C704.808 424.328 702.665 428.419 700.717 432.705C696.236 442.252 692.144 452.188 688.443 461.929C687.469 464.656 686.105 467.189 685.131 469.917L684.546 471.086C681.819 478.294 679.87 485.697 677.533 493.101C675.584 499.14 673.441 504.985 671.883 511.025C669.545 519.207 667.986 527.585 666.038 535.962C664.674 541.807 663.116 547.457 662.141 553.107C660.388 562.653 659.219 572.199 658.05 581.941C657.466 586.811 656.492 591.487 656.102 596.358C654.738 610.775 653.959 625.581 653.959 640.193C653.374 849.434 962.56 1229.15 1034.65 1314.87C1036.01 1316.43 1037.57 1317.79 1039.32 1318.77L1131.08 1368.64C1129.33 1367.67 1127.77 1366.5 1126.41 1364.74C1054.32 1279.02 745.137 899.309 745.526 690.068C745.526 675.456 746.305 660.65 747.669 646.233C748.059 641.557 749.033 636.881 749.617 632.01Z" fill="#DF4D03"/>
<path d="M1141.6 205.346C1361.17 174.564 1538.46 341.723 1538.07 578.629C1537.68 787.871 1226.74 1254.67 1154.46 1360.65C1150.57 1366.3 1145.11 1369.62 1139.46 1370.4C1133.81 1371.17 1128.36 1369.42 1124.46 1364.75C1052.37 1279.02 743.188 899.31 743.578 690.069C743.967 453.358 922.231 236.323 1141.6 205.346ZM1140.43 877.685C1264.15 860.345 1364.29 737.996 1364.68 604.736C1364.87 471.281 1265.12 377.181 1141.41 394.521C1017.7 411.86 917.361 534.21 916.971 667.664C916.581 800.924 1016.72 895.024 1140.43 877.685Z" fill="#FC864A" fill-opacity="0.9"/>
<path d="M1134.78 1487.29C1096.99 1488.65 1056.66 1481.05 1044.58 1470.53C1032.5 1460.01 1053.15 1450.47 1090.95 1449.1C1128.75 1447.74 1169.07 1455.34 1181.15 1465.86C1193.23 1476.38 1172.39 1485.93 1134.78 1487.29Z" fill="#FF7777"/>
<path d="M1130.11 1481.44C1103.81 1482.42 1075.56 1477.16 1066.99 1469.75C1058.41 1462.35 1073.03 1455.73 1099.33 1454.75C1125.63 1453.78 1153.88 1459.04 1162.45 1466.44C1170.83 1473.85 1156.41 1480.66 1130.11 1481.44Z" fill="#F77F00"/>
</g>
<defs>
<clipPath id="clip0_631_5956">
<rect width="1995" height="1995" fill="white"/>
</clipPath>
</defs>
</svg>
