<svg xmlns="http://www.w3.org/2000/svg" xmlns:xlink="http://www.w3.org/1999/xlink" width="500" zoomAndPan="magnify" viewBox="0 0 375 374.999991" height="500" preserveAspectRatio="xMidYMid meet" version="1.0"><defs><g/><clipPath id="326649197d"><path d="M 25.820312 221 L 163.820312 221 L 163.820312 226 L 25.820312 226 Z M 25.820312 221 " clip-rule="nonzero"/></clipPath><clipPath id="900fde392e"><path d="M 74 233 L 116 233 L 116 237.25 L 74 237.25 Z M 74 233 " clip-rule="nonzero"/></clipPath></defs><path fill="#0e1550" d="M 69.046875 187.449219 L 69.046875 211.621094 L 70.074219 211.621094 L 70.074219 201.265625 L 72.773438 198.394531 L 75.710938 199.230469 L 75.710938 210.757812 L 76.605469 211.015625 L 76.605469 196.777344 L 78.421875 195.664062 L 78.421875 189.605469 L 81.6875 186.132812 L 84.703125 189.335938 L 84.703125 212.867188 L 85.757812 213.167969 L 85.757812 201.210938 L 86.699219 201.789062 L 86.699219 194.207031 L 88.265625 194.652344 L 88.265625 189.902344 L 90.175781 190.445312 L 93.058594 187.382812 L 93.058594 208.523438 L 93.722656 208.523438 L 93.722656 197.378906 L 97.300781 193.574219 L 97.300781 213.472656 L 97.871094 220.097656 L 97.871094 190.277344 L 104.746094 197.582031 L 104.746094 205.257812 L 105.894531 205.257812 L 105.894531 193.746094 L 108.421875 192.195312 L 108.421875 187.414062 L 110.382812 185.328125 L 115.898438 191.1875 L 115.898438 211.046875 L 117.1875 211.046875 L 117.1875 204.679688 L 119.546875 202.171875 L 123.757812 203.371094 L 123.757812 191.683594 L 125.59375 190.558594 L 131.226562 194.015625 L 131.226562 209.96875 L 132.398438 209.96875 L 132.398438 193.144531 L 134.496094 191.859375 L 134.496094 185.222656 L 135.542969 186.339844 L 135.542969 194 L 136.992188 194.890625 L 136.992188 209.566406 L 138.195312 209.566406 L 138.195312 195.695312 L 141.363281 192.9375 L 141.363281 213.269531 L 142.1875 213.269531 L 142.1875 201.824219 L 147.320312 204.851562 L 147.320312 221.984375 L 42.324219 221.984375 L 42.324219 202.734375 L 45.59375 200.726562 L 49.761719 205.15625 L 49.761719 188.363281 L 52.015625 185.96875 L 55.640625 188.191406 L 55.640625 209.777344 L 56.4375 210.003906 L 56.4375 205.828125 L 57.578125 205.828125 L 57.578125 198.152344 L 59.351562 196.269531 L 59.351562 189.332031 L 64.023438 184.367188 Z M 69.046875 187.449219 " fill-opacity="1" fill-rule="evenodd"/><path fill="#09d1e3" d="M 109.789062 187.945312 C 101.558594 196.164062 88.085938 196.164062 79.851562 187.945312 C 71.621094 179.726562 71.621094 166.28125 79.851562 158.0625 C 88.085938 149.847656 101.558594 149.847656 109.789062 158.0625 C 118.023438 166.28125 118.023438 179.726562 109.789062 187.945312 M 117.730469 195.867188 L 94.820312 218.734375 L 71.914062 195.867188 C 59.3125 183.292969 59.3125 162.714844 71.914062 150.140625 C 84.511719 137.566406 105.128906 137.566406 117.726562 150.140625 L 117.730469 150.140625 C 130.328125 162.714844 130.328125 183.292969 117.730469 195.867188 Z M 117.730469 195.867188 " fill-opacity="1" fill-rule="evenodd"/><g clip-path="url(#326649197d)"><path fill="#09d1e3" d="M 42.320312 221.984375 L 147.320312 221.984375 C 156.398438 221.984375 163.820312 222.785156 163.820312 223.761719 C 163.820312 224.742188 156.398438 225.542969 147.320312 225.542969 L 42.320312 225.542969 C 33.242188 225.542969 25.820312 224.742188 25.820312 223.761719 C 25.820312 222.785156 33.242188 221.984375 42.320312 221.984375 " fill-opacity="1" fill-rule="evenodd"/></g><path fill="#09d1e3" d="M 71.566406 227.808594 L 118.074219 227.808594 C 127.152344 227.808594 134.574219 228.605469 134.574219 229.585938 C 134.574219 230.566406 127.152344 231.367188 118.074219 231.367188 L 71.566406 231.367188 C 62.488281 231.367188 55.066406 230.566406 55.066406 229.585938 C 55.066406 228.605469 62.488281 227.808594 71.566406 227.808594 " fill-opacity="1" fill-rule="evenodd"/><g clip-path="url(#900fde392e)"><path fill="#09d1e3" d="M 91.070312 233.628906 L 98.574219 233.628906 C 107.652344 233.628906 115.074219 234.429688 115.074219 235.410156 C 115.074219 236.390625 107.652344 237.191406 98.574219 237.191406 L 91.070312 237.191406 C 81.988281 237.191406 74.566406 236.390625 74.566406 235.410156 C 74.566406 234.429688 81.988281 233.628906 91.070312 233.628906 " fill-opacity="1" fill-rule="evenodd"/></g><g fill="#0e1550" fill-opacity="1"><g transform="translate(160.681133, 203.478727)"><g><path d="M 10.070312 0 C 10.589844 0 10.859375 -0.269531 10.859375 -0.789062 L 10.859375 -10.109375 L 17.613281 -10.109375 C 23.226562 -10.109375 26.660156 -13.949219 26.660156 -20.101562 C 26.660156 -25.175781 24.382812 -29.632812 16.03125 -29.632812 L 3.722656 -29.632812 C 3.203125 -29.632812 2.933594 -29.363281 2.933594 -28.839844 L 2.933594 -0.789062 C 2.933594 -0.269531 3.203125 0 3.722656 0 Z M 10.859375 -22.917969 L 14.660156 -22.917969 C 16.242188 -22.917969 18.769531 -22.917969 18.769531 -20.023438 C 18.769531 -16.820312 15.761719 -16.820312 14.660156 -16.820312 L 10.859375 -16.820312 Z M 10.859375 -22.917969 "/></g></g></g><g fill="#0e1550" fill-opacity="1"><g transform="translate(190.745138, 203.478727)"><g><path d="M 16.320312 -29.632812 C 15.722656 -30.847656 14.777344 -30.847656 14.179688 -29.632812 L 0.597656 -0.945312 C 0.347656 -0.386719 0.597656 0 1.175781 0 L 8.140625 0 C 8.566406 0 8.894531 -0.230469 9.046875 -0.636719 L 10.011719 -3.125 L 20.488281 -3.125 L 21.453125 -0.636719 C 21.605469 -0.230469 21.933594 0 22.359375 0 L 29.324219 0 C 29.902344 0 30.152344 -0.386719 29.902344 -0.945312 Z M 15.257812 -16.496094 L 18.171875 -9.046875 L 12.328125 -9.046875 Z M 15.257812 -16.496094 "/></g></g></g><g fill="#0e1550" fill-opacity="1"><g transform="translate(223.259173, 203.478727)"><g><path d="M 22.089844 -11.132812 C 25 -12.65625 26.660156 -15.820312 26.660156 -20.101562 C 26.660156 -25.175781 24.382812 -29.632812 16.03125 -29.632812 L 3.722656 -29.632812 C 3.203125 -29.632812 2.933594 -29.363281 2.933594 -28.839844 L 2.933594 -0.789062 C 2.933594 -0.269531 3.203125 0 3.722656 0 L 10.070312 0 C 10.589844 0 10.859375 -0.269531 10.859375 -0.789062 L 10.859375 -10.109375 L 14.199219 -10.109375 L 18.964844 -0.597656 C 19.15625 -0.191406 19.445312 0 19.871094 0 L 27.066406 0 C 27.664062 0 27.894531 -0.386719 27.625 -0.945312 Z M 14.660156 -22.917969 C 16.242188 -22.917969 18.769531 -22.917969 18.769531 -20.023438 C 18.769531 -16.820312 15.761719 -16.820312 14.660156 -16.820312 L 10.859375 -16.820312 L 10.859375 -22.917969 Z M 14.660156 -22.917969 "/></g></g></g><g fill="#0e1550" fill-opacity="1"><g transform="translate(254.557839, 203.478727)"><g><path d="M 10.109375 0 C 10.628906 0 10.898438 -0.269531 10.898438 -0.789062 L 10.898438 -13.003906 L 19.792969 -0.480469 C 20.023438 -0.15625 20.351562 0 20.738281 0 L 29.554688 0 C 30.191406 0 30.421875 -0.445312 30.019531 -0.945312 L 19.234375 -15.839844 L 30.191406 -28.648438 C 30.617188 -29.148438 30.421875 -29.632812 29.746094 -29.632812 L 21.605469 -29.632812 C 21.222656 -29.632812 20.894531 -29.515625 20.621094 -29.1875 L 10.898438 -18.019531 L 10.898438 -28.839844 C 10.898438 -29.363281 10.628906 -29.632812 10.109375 -29.632812 L 3.722656 -29.632812 C 3.203125 -29.632812 2.933594 -29.363281 2.933594 -28.839844 L 2.933594 -0.789062 C 2.933594 -0.269531 3.203125 0 3.722656 0 Z M 10.109375 0 "/></g></g></g><g fill="#0e1550" fill-opacity="1"><g transform="translate(287.785664, 203.478727)"><g><path d="M 13.773438 -6.714844 L 26.699219 -28.6875 C 27.027344 -29.1875 26.796875 -29.632812 26.160156 -29.632812 L 3.664062 -29.632812 C 3.164062 -29.632812 2.894531 -29.363281 2.894531 -28.839844 L 2.894531 -23.710938 C 2.894531 -23.1875 3.164062 -22.917969 3.664062 -22.917969 L 14.023438 -22.917969 L 1.136719 -0.945312 C 0.828125 -0.445312 1.0625 0 1.699219 0 L 26.582031 0 C 27.105469 0 27.375 -0.269531 27.375 -0.789062 L 27.375 -5.921875 C 27.375 -6.445312 27.105469 -6.714844 26.582031 -6.714844 Z M 13.773438 -6.714844 "/></g></g></g><g fill="#0e1550" fill-opacity="1"><g transform="translate(161.422844, 220.434765)"><g><path d="M 4.375 -4.5625 L 2.671875 -4.5625 L 2.671875 0 L 1.765625 0 L 1.765625 -4.5625 L 0.0625 -4.5625 L 0.0625 -5.375 L 4.375 -5.375 Z M 4.375 -4.5625 "/></g></g></g><g fill="#0e1550" fill-opacity="1"><g transform="translate(169.558467, 220.434765)"><g><path d="M 5.375 0 L 4.46875 0 L 4.46875 -2.234375 L 1.609375 -2.234375 L 1.609375 0 L 0.703125 0 L 0.703125 -5.375 L 1.609375 -5.375 L 1.609375 -3.046875 L 4.46875 -3.046875 L 4.46875 -5.375 L 5.375 -5.375 Z M 5.375 0 "/></g></g></g><g fill="#0e1550" fill-opacity="1"><g transform="translate(179.322759, 220.434765)"><g><path d="M 2.375 -6.71875 L 1.4375 -5.96875 L 0.640625 -5.96875 L 1.453125 -7.109375 Z M 1.609375 0 L 0.703125 0 L 0.703125 -5.375 L 1.609375 -5.375 Z M 1.609375 0 "/></g></g></g><g fill="#0e1550" fill-opacity="1"><g transform="translate(185.330361, 220.434765)"><g><path d="M 3.09375 -5.40625 C 3.46875 -5.40625 3.835938 -5.332031 4.203125 -5.1875 C 4.566406 -5.039062 4.878906 -4.835938 5.140625 -4.578125 L 4.609375 -3.90625 C 4.410156 -4.125 4.175781 -4.289062 3.90625 -4.40625 C 3.644531 -4.53125 3.378906 -4.59375 3.109375 -4.59375 C 2.566406 -4.59375 2.109375 -4.410156 1.734375 -4.046875 C 1.367188 -3.679688 1.1875 -3.234375 1.1875 -2.703125 C 1.1875 -2.171875 1.367188 -1.722656 1.734375 -1.359375 C 2.109375 -0.992188 2.566406 -0.8125 3.109375 -0.8125 C 3.660156 -0.8125 4.160156 -1.019531 4.609375 -1.4375 L 5.140625 -0.84375 C 4.867188 -0.570312 4.546875 -0.359375 4.171875 -0.203125 C 3.804688 -0.046875 3.4375 0.03125 3.0625 0.03125 C 2.269531 0.03125 1.601562 -0.226562 1.0625 -0.75 C 0.53125 -1.269531 0.265625 -1.921875 0.265625 -2.703125 C 0.265625 -3.460938 0.535156 -4.101562 1.078125 -4.625 C 1.628906 -5.144531 2.300781 -5.40625 3.09375 -5.40625 Z M 3.09375 -5.40625 "/></g></g></g><g fill="#0e1550" fill-opacity="1"><g transform="translate(194.372511, 220.434765)"><g><path d="M 5.375 0 L 4.46875 0 L 4.46875 -2.234375 L 1.609375 -2.234375 L 1.609375 0 L 0.703125 0 L 0.703125 -5.375 L 1.609375 -5.375 L 1.609375 -3.046875 L 4.46875 -3.046875 L 4.46875 -5.375 L 5.375 -5.375 Z M 5.375 0 "/></g></g></g><g fill="#0e1550" fill-opacity="1"><g transform="translate(204.136805, 220.434765)"><g/></g></g><g fill="#0e1550" fill-opacity="1"><g transform="translate(209.806386, 220.434765)"><g><path d="M 4.375 -4.5625 L 2.671875 -4.5625 L 2.671875 0 L 1.765625 0 L 1.765625 -4.5625 L 0.0625 -4.5625 L 0.0625 -5.375 L 4.375 -5.375 Z M 4.375 -4.5625 "/></g></g></g><g fill="#0e1550" fill-opacity="1"><g transform="translate(217.94201, 220.434765)"><g><path d="M 5.375 0 L 4.46875 0 L 4.46875 -2.234375 L 1.609375 -2.234375 L 1.609375 0 L 0.703125 0 L 0.703125 -5.375 L 1.609375 -5.375 L 1.609375 -3.046875 L 4.46875 -3.046875 L 4.46875 -5.375 L 5.375 -5.375 Z M 5.375 0 "/></g></g></g><g fill="#0e1550" fill-opacity="1"><g transform="translate(227.706304, 220.434765)"><g><path d="M 1.625 -5.96875 L 0.84375 -5.96875 L -0.09375 -6.734375 L 0.8125 -7.109375 Z M 1.609375 0 L 0.703125 0 L 0.703125 -5.375 L 1.609375 -5.375 Z M 1.609375 0 "/></g></g></g><g fill="#0e1550" fill-opacity="1"><g transform="translate(233.713908, 220.434765)"><g/></g></g><g fill="#0e1550" fill-opacity="1"><g transform="translate(239.383489, 220.434765)"><g><path d="M 3.09375 -5.40625 C 3.46875 -5.40625 3.835938 -5.332031 4.203125 -5.1875 C 4.566406 -5.039062 4.878906 -4.835938 5.140625 -4.578125 L 4.609375 -3.90625 C 4.410156 -4.125 4.175781 -4.289062 3.90625 -4.40625 C 3.644531 -4.53125 3.378906 -4.59375 3.109375 -4.59375 C 2.566406 -4.59375 2.109375 -4.410156 1.734375 -4.046875 C 1.367188 -3.679688 1.1875 -3.234375 1.1875 -2.703125 C 1.1875 -2.171875 1.367188 -1.722656 1.734375 -1.359375 C 2.109375 -0.992188 2.566406 -0.8125 3.109375 -0.8125 C 3.660156 -0.8125 4.160156 -1.019531 4.609375 -1.4375 L 5.140625 -0.84375 C 4.867188 -0.570312 4.546875 -0.359375 4.171875 -0.203125 C 3.804688 -0.046875 3.4375 0.03125 3.0625 0.03125 C 2.269531 0.03125 1.601562 -0.226562 1.0625 -0.75 C 0.53125 -1.269531 0.265625 -1.921875 0.265625 -2.703125 C 0.265625 -3.460938 0.535156 -4.101562 1.078125 -4.625 C 1.628906 -5.144531 2.300781 -5.40625 3.09375 -5.40625 Z M 3.09375 -5.40625 "/></g></g></g><g fill="#0e1550" fill-opacity="1"><g transform="translate(248.425639, 220.434765)"><g><path d="M 1.078125 -4.625 C 1.628906 -5.144531 2.304688 -5.40625 3.109375 -5.40625 C 3.921875 -5.40625 4.597656 -5.144531 5.140625 -4.625 C 5.691406 -4.101562 5.96875 -3.457031 5.96875 -2.6875 C 5.96875 -1.914062 5.691406 -1.269531 5.140625 -0.75 C 4.597656 -0.226562 3.921875 0.03125 3.109375 0.03125 C 2.304688 0.03125 1.628906 -0.226562 1.078125 -0.75 C 0.535156 -1.269531 0.265625 -1.914062 0.265625 -2.6875 C 0.265625 -3.457031 0.535156 -4.101562 1.078125 -4.625 Z M 3.125 -4.59375 C 2.59375 -4.59375 2.132812 -4.40625 1.75 -4.03125 C 1.375 -3.664062 1.1875 -3.21875 1.1875 -2.6875 C 1.1875 -2.15625 1.375 -1.703125 1.75 -1.328125 C 2.132812 -0.960938 2.585938 -0.78125 3.109375 -0.78125 C 3.640625 -0.78125 4.09375 -0.960938 4.46875 -1.328125 C 4.84375 -1.703125 5.03125 -2.15625 5.03125 -2.6875 C 5.03125 -3.21875 4.84375 -3.664062 4.46875 -4.03125 C 4.09375 -4.40625 3.644531 -4.59375 3.125 -4.59375 Z M 3.125 -4.59375 "/></g></g></g><g fill="#0e1550" fill-opacity="1"><g transform="translate(258.33589, 220.434765)"><g><path d="M 0.703125 -5.375 L 2.90625 -5.375 C 3.71875 -5.375 4.382812 -5.117188 4.90625 -4.609375 C 5.4375 -4.109375 5.703125 -3.46875 5.703125 -2.6875 C 5.703125 -1.90625 5.4375 -1.257812 4.90625 -0.75 C 4.375 -0.25 3.703125 0 2.890625 0 L 0.703125 0 Z M 1.609375 -4.5625 L 1.609375 -0.8125 L 2.9375 -0.8125 C 3.46875 -0.8125 3.90625 -0.988281 4.25 -1.34375 C 4.601562 -1.695312 4.78125 -2.144531 4.78125 -2.6875 C 4.78125 -3.226562 4.597656 -3.675781 4.234375 -4.03125 C 3.878906 -4.382812 3.429688 -4.5625 2.890625 -4.5625 Z M 1.609375 -4.5625 "/></g></g></g><g fill="#0e1550" fill-opacity="1"><g transform="translate(267.97726, 220.434765)"><g><path d="M 4.546875 -4.5625 L 1.609375 -4.5625 L 1.609375 -3.109375 L 4.25 -3.109375 L 4.25 -2.296875 L 1.609375 -2.296875 L 1.609375 -0.8125 L 4.640625 -0.8125 L 4.640625 0 L 0.703125 0 L 0.703125 -5.375 L 4.546875 -5.375 Z M 4.546875 -4.5625 "/></g></g></g><g fill="#0e1550" fill-opacity="1"><g transform="translate(276.704427, 220.434765)"><g/></g></g><g fill="#0e1550" fill-opacity="1"><g transform="translate(282.374003, 220.434765)"><g><path d="M 4.375 -4.5625 L 2.671875 -4.5625 L 2.671875 0 L 1.765625 0 L 1.765625 -4.5625 L 0.0625 -4.5625 L 0.0625 -5.375 L 4.375 -5.375 Z M 4.375 -4.5625 "/></g></g></g><g fill="#0e1550" fill-opacity="1"><g transform="translate(290.509623, 220.434765)"><g><path d="M 4.546875 -4.5625 L 1.609375 -4.5625 L 1.609375 -3.109375 L 4.25 -3.109375 L 4.25 -2.296875 L 1.609375 -2.296875 L 1.609375 -0.8125 L 4.640625 -0.8125 L 4.640625 0 L 0.703125 0 L 0.703125 -5.375 L 4.546875 -5.375 Z M 4.546875 -4.5625 "/></g></g></g><g fill="#0e1550" fill-opacity="1"><g transform="translate(299.236789, 220.434765)"><g><path d="M 4.1875 -1.21875 L 1.46875 -1.21875 L 0.953125 0 L 0 0 L 2.390625 -5.375 L 3.3125 -5.375 L 5.671875 0 L 4.703125 0 Z M 3.84375 -2.015625 L 2.828125 -4.40625 L 1.8125 -2.015625 Z M 3.84375 -2.015625 "/></g></g></g><g fill="#0e1550" fill-opacity="1"><g transform="translate(308.593913, 220.434765)"><g><path d="M 6.390625 0 L 5.5625 0 L 5.546875 -4.015625 L 3.84375 -0.5625 L 3.265625 -0.5625 L 1.5625 -4.015625 L 1.5625 0 L 0.703125 0 L 0.703125 -5.375 L 1.78125 -5.375 L 3.5625 -1.8125 L 5.328125 -5.375 L 6.390625 -5.375 Z M 6.390625 0 "/></g></g></g></svg>