<svg width="1995" height="1995" viewBox="0 0 1995 1995" fill="none" xmlns="http://www.w3.org/2000/svg">
<path d="M816.703 1758.87L308.017 1482.22V1434.49L816.703 1711.14V1758.87Z" fill="#7BB7FF"/>
<path d="M816.703 1711.14L308.017 1434.49L1156.48 1315.26L1665.16 1591.91L816.703 1711.14Z" fill="#BBD2FF"/>
<path d="M1665.16 1591.91L1664.97 1639.64L816.703 1758.87V1711.14L1665.16 1591.91Z" fill="#D5E1FF"/>
<path d="M1306.49 1533.66C1292.46 1520.41 1274.15 1513 1254.86 1512.62L967.887 1508.33C964.575 1508.33 961.458 1506.58 959.899 1503.65L928.143 1450.08C926.389 1446.96 928.337 1443.06 931.844 1442.67L1284.09 1405.66L1310.58 1397.86L1279.8 1381.11L916.453 1419.29C912.557 1419.68 908.855 1417.93 906.907 1414.62L871.838 1355.2L752.801 1371.95L807.741 1485.92C809.3 1489.24 806.572 1492.74 803.065 1492.35L352.242 1428.06L308.407 1434.3L332.37 1447.35L803.455 1517.29C806.767 1517.68 808.326 1521.38 806.572 1524.11L718.901 1657.56L817.872 1711.34L885.866 1701.79L954.054 1554.89C960.289 1541.64 973.731 1533.07 988.343 1533.27L1244.73 1537.16C1264.02 1537.36 1282.33 1544.96 1296.36 1558.2L1375.65 1633.02L1407.02 1628.54L1306.49 1533.66Z" fill="#2E465C"/>
<path d="M1353.18 699.808C1354.74 695.717 1355.72 691.625 1357.08 687.534C1358.25 684.222 1359.42 680.715 1360.39 677.403C1361.75 672.727 1362.53 668.052 1363.7 663.376C1364.48 660.064 1365.26 656.947 1365.85 653.635C1366.82 648.179 1367.4 642.724 1368.18 637.074C1368.57 634.542 1368.96 631.814 1369.35 629.281C1370.13 621.099 1370.52 612.916 1370.52 604.539C1370.72 518.621 1329.22 448.874 1266.68 414.78L1174.72 364.905C1237.26 398.999 1278.76 468.552 1278.56 554.664C1278.56 562.846 1278.18 571.224 1277.4 579.406C1277.2 581.939 1276.62 584.472 1276.42 587.005C1275.64 592.655 1275.06 598.304 1274.08 603.76C1273.5 606.877 1272.72 609.994 1271.94 613.111C1270.97 617.982 1269.99 622.852 1268.63 627.528C1267.65 630.84 1266.49 634.152 1265.51 637.464C1264.15 641.75 1262.78 646.231 1261.23 650.517C1256.94 662.012 1251.68 673.312 1246.03 684.027C1244.86 686.17 1243.89 688.313 1242.72 690.456C1237.85 699.418 1232.39 708.185 1226.55 716.563C1225.77 717.732 1224.79 718.706 1224.01 719.875C1219.14 726.694 1213.88 733.318 1208.43 739.747L1202.58 746.176C1197.52 751.826 1192.06 757.086 1186.61 762.346C1184.85 763.905 1183.3 765.464 1181.74 767.022C1174.14 773.841 1166.15 780.075 1157.97 785.725C1154.46 788.258 1150.76 790.596 1147.06 792.934C1144.72 794.492 1142.38 796.051 1140.04 797.415C1135.37 800.142 1130.5 802.675 1125.43 805.208C1123.68 805.987 1122.12 806.961 1120.37 807.935C1119.59 808.325 1118.61 808.52 1117.83 808.909C1109.26 812.806 1100.69 816.118 1091.73 819.04L1084.13 821.378C1074.39 824.106 1064.45 826.444 1054.32 828.002C1044.39 829.366 1034.84 829.756 1025.29 829.756H1019.45C1010.29 829.561 1001.33 828.587 992.563 827.223C991.004 827.028 989.446 826.638 987.887 826.249C979.899 824.69 972.106 822.742 964.508 820.209C963.145 819.82 961.976 819.43 960.612 819.04C951.65 815.728 942.883 812.027 934.505 807.546L1026.27 857.421C1028.61 858.59 1030.75 859.759 1033.09 860.927C1039.32 864.045 1045.75 866.577 1052.18 868.915C1053.54 869.305 1054.71 869.695 1056.08 870.084C1060.17 871.448 1064.26 872.812 1068.35 873.981C1071.86 874.955 1075.75 875.539 1079.45 876.319C1081.01 876.708 1082.57 876.903 1084.13 877.293C1092.9 878.851 1101.86 879.631 1111.02 879.825H1116.86C1126.41 879.825 1135.95 879.436 1145.89 878.072C1156.02 876.708 1165.96 874.37 1175.7 871.448L1183.3 869.11C1192.26 866.188 1200.83 862.876 1209.4 858.979C1209.99 858.784 1210.77 858.59 1211.35 858.2C1211.55 858.005 1211.74 858.005 1211.93 857.81C1213.69 857.031 1215.25 856.057 1217 855.083C1221.87 852.55 1226.74 850.017 1231.61 847.29C1233.95 845.926 1236.29 844.367 1238.63 842.809C1241.74 840.861 1244.67 839.107 1247.59 837.159C1248.17 836.769 1248.76 836.185 1249.34 835.6C1257.52 829.756 1265.51 823.521 1273.11 816.897C1273.5 816.508 1274.08 816.118 1274.47 815.728L1277.98 812.221C1283.44 807.156 1288.89 801.701 1293.96 796.051C1294.93 794.882 1296.29 793.908 1297.27 792.739C1298.05 791.765 1298.83 790.596 1299.8 789.622C1305.26 783.193 1310.52 776.763 1315.39 769.75C1315.97 768.776 1316.75 767.996 1317.53 767.022C1317.72 766.827 1317.72 766.633 1317.92 766.438C1323.76 758.06 1329.02 749.293 1334.09 740.331C1334.67 739.357 1335.26 738.578 1335.84 737.604C1336.43 736.435 1336.82 735.266 1337.4 734.097C1343.05 723.187 1348.31 712.082 1352.6 700.587C1352.99 700.003 1353.18 700.003 1353.18 699.808Z" fill="#E33F0B" fill-opacity="0.9"/>
<path d="M749.617 632.009C750.786 622.463 751.955 612.722 753.709 603.175C754.878 597.331 756.436 591.681 757.605 586.031C759.554 577.653 761.112 569.276 763.45 561.093C765.203 555.054 767.346 549.209 769.1 543.17C771.633 535.377 773.776 527.584 776.698 519.985C777.672 517.258 778.841 514.725 780.01 511.998C783.907 502.062 787.998 492.32 792.284 482.774C794.232 478.488 796.375 474.397 798.518 470.11C802.61 461.928 806.701 453.745 811.182 445.757C812.935 442.445 814.884 439.328 816.637 436.211C822.092 426.859 827.937 417.703 833.976 408.936L837.483 403.675C839.042 401.532 840.795 399.389 842.354 397.246C851.121 385.167 860.278 373.478 870.019 362.178C873.331 358.281 876.838 354.385 880.345 350.683C889.501 340.747 898.853 331.201 908.594 322.044C911.906 318.927 915.218 315.42 918.725 312.498L926.323 306.068C933.726 299.834 941.13 293.989 948.728 288.145C951.65 286.002 954.378 283.859 957.3 281.715C964.314 276.65 971.522 272.169 978.731 267.493C982.822 264.961 986.913 262.038 991.2 259.7C999.577 254.635 1008.34 250.154 1017.11 245.868C1020.03 244.309 1022.96 242.556 1026.07 241.192C1037.18 235.932 1048.48 231.256 1059.97 226.97C1063.09 225.801 1066.4 224.827 1069.52 223.658C1078.48 220.541 1087.44 217.813 1096.4 215.475C1099.91 214.501 1103.42 213.527 1106.73 212.748C1118.81 209.825 1130.89 207.293 1143.16 205.539C1154.27 203.981 1165.18 203.006 1176.09 202.422C1179.4 202.227 1182.91 202.227 1186.22 202.227L1179.64 208.907C1209.79 210.41 1209.79 210.41 1239.95 211.912C1244.28 205.344 1247.78 205.734 1251.1 206.318C1259.67 207.682 1268.24 209.436 1276.62 211.579C1278.18 211.968 1279.73 212.163 1281.1 212.553C1291.03 215.086 1300.78 218.203 1310.32 221.71C1313.05 222.684 1315.78 223.853 1318.5 225.022C1325.32 227.749 1332.14 230.477 1338.77 233.594C1344.42 236.321 1350.07 238.854 1355.52 241.776L1263.76 191.901C1259.86 189.758 1255.77 187.615 1251.68 185.667C1250.12 184.888 1248.56 184.498 1247 183.719C1240.38 180.602 1233.56 177.679 1226.74 175.147C1224.01 174.172 1221.29 173.004 1218.56 171.835C1209.01 168.328 1199.27 165.211 1189.34 162.678C1189.14 162.678 1188.95 162.483 1188.75 162.483C1187.58 162.093 1186.22 162.093 1185.05 161.704C1176.67 159.561 1168.1 157.807 1159.53 156.443C1156.22 155.859 1152.71 155.469 1149.4 155.08C1142.38 154.106 1135.37 153.326 1128.16 152.937L1117.06 152.352C1109.65 152.157 1102.25 152.157 1094.65 152.352C1091.34 152.352 1088.03 152.352 1084.52 152.547C1073.61 153.131 1062.7 154.106 1051.6 155.664C1039.32 157.418 1027.05 159.95 1015.16 162.873C1011.66 163.652 1008.15 164.626 1004.84 165.6C995.68 167.938 986.913 170.666 977.951 173.783C974.834 174.952 971.522 175.926 968.405 177.095C957.3 181.186 946.39 185.667 935.675 190.733L934.506 191.317C931.389 192.681 928.661 194.434 925.544 195.993C916.777 200.474 908.204 204.955 899.632 209.825C895.346 212.358 891.45 215.086 887.163 217.618C881.708 220.93 876.253 224.242 870.993 227.944C869.24 229.113 867.486 230.672 865.538 231.84C862.616 233.984 859.888 236.127 856.966 238.27C849.367 243.92 841.769 249.959 834.561 256.193L826.963 262.623C825.599 263.792 824.43 264.766 823.066 265.935C820.923 267.883 818.975 270.221 816.832 272.169C807.091 281.326 797.544 290.872 788.582 300.808C786.634 302.951 784.491 304.705 782.738 306.848C781.179 308.601 779.815 310.549 778.451 312.303C768.71 323.603 759.554 335.292 750.786 347.371C749.617 348.93 748.254 350.488 747.085 352.047L745.916 353.8L742.409 359.061C736.369 368.023 730.525 377.179 725.07 386.336C723.121 389.453 721.368 392.765 719.615 395.882C718.056 398.805 716.303 401.532 714.744 404.455C712.016 409.52 709.679 414.975 706.951 420.041C704.808 424.327 702.665 428.418 700.717 432.704C696.236 442.251 692.144 452.187 688.443 461.928C687.469 464.655 686.105 467.188 685.131 469.916L684.546 471.085C681.819 478.293 679.87 485.696 677.533 493.1C675.584 499.139 673.441 504.984 671.883 511.024C669.545 519.206 667.986 527.584 666.038 535.961C664.674 541.806 663.116 547.456 662.141 553.106C660.388 562.652 659.219 572.198 658.05 581.94C657.466 586.81 656.492 591.486 656.102 596.357C654.738 610.774 653.959 625.58 653.959 640.192C653.374 849.433 962.56 1229.15 1034.65 1314.87C1036.01 1316.43 1037.57 1317.79 1039.32 1318.76L1131.08 1368.64C1129.33 1367.67 1127.77 1366.5 1126.41 1364.74C1054.32 1279.02 745.137 899.308 745.526 690.067C745.526 675.455 746.305 660.649 747.669 646.232C748.059 641.556 749.033 636.88 749.617 632.009Z" fill="#DF4D03"/>
<path d="M1141.6 205.345C1361.17 174.563 1538.46 341.722 1538.07 578.628C1537.68 787.869 1226.74 1254.67 1154.46 1360.65C1150.57 1366.3 1145.11 1369.61 1139.46 1370.39C1133.81 1371.17 1128.36 1369.42 1124.46 1364.74C1052.37 1279.02 743.188 899.309 743.578 690.068C743.967 453.356 922.231 236.322 1141.6 205.345ZM1140.43 877.683C1264.15 860.344 1364.29 737.994 1364.68 604.735C1364.87 471.28 1265.12 377.18 1141.41 394.519C1017.7 411.859 917.361 534.208 916.971 667.663C916.581 800.923 1016.72 895.023 1140.43 877.683Z" fill="#FC864A" fill-opacity="0.9"/>
<path d="M1134.78 1487.29C1096.99 1488.65 1056.66 1481.05 1044.58 1470.53C1032.5 1460.01 1053.15 1450.47 1090.95 1449.1C1128.75 1447.74 1169.07 1455.34 1181.15 1465.86C1193.23 1476.38 1172.39 1485.92 1134.78 1487.29Z" fill="#FF7777"/>
<path d="M1130.11 1481.44C1103.81 1482.42 1075.56 1477.16 1066.99 1469.75C1058.41 1462.35 1073.03 1455.73 1099.33 1454.75C1125.63 1453.78 1153.88 1459.04 1162.45 1466.44C1170.83 1473.85 1156.41 1480.66 1130.11 1481.44Z" fill="#F77F00"/>
</svg>
