<svg xmlns="http://www.w3.org/2000/svg" xmlns:xlink="http://www.w3.org/1999/xlink" width="500" zoomAndPan="magnify" viewBox="0 0 375 374.999991" height="500" preserveAspectRatio="xMidYMid meet" version="1.0"><defs><g/><clipPath id="7e2a58cf29"><path d="M 118.457031 190 L 256.457031 190 L 256.457031 194 L 118.457031 194 Z M 118.457031 190 " clip-rule="nonzero"/></clipPath><clipPath id="1c6d2af9a1"><path d="M 167 202 L 208 202 L 208 205.597656 L 167 205.597656 Z M 167 202 " clip-rule="nonzero"/></clipPath></defs><path fill="#0e1550" d="M 161.683594 155.796875 L 161.683594 179.980469 L 162.710938 179.980469 L 162.710938 169.621094 L 165.410156 166.75 L 168.347656 167.585938 L 168.347656 179.121094 L 169.242188 179.375 L 169.242188 165.132812 L 171.058594 164.015625 L 171.058594 157.953125 L 174.324219 154.480469 L 177.339844 157.683594 L 177.339844 181.230469 L 178.390625 181.53125 L 178.390625 169.566406 L 179.335938 170.148438 L 179.335938 162.558594 L 180.902344 163.007812 L 180.902344 158.25 L 182.808594 158.796875 L 185.691406 155.730469 L 185.691406 176.882812 L 186.359375 176.882812 L 186.359375 165.734375 L 189.9375 161.929688 L 189.9375 181.835938 L 190.507812 188.464844 L 190.507812 158.625 L 197.382812 165.9375 L 197.382812 173.617188 L 198.53125 173.617188 L 198.53125 162.097656 L 201.054688 160.546875 L 201.054688 155.761719 L 203.019531 153.675781 L 208.53125 159.535156 L 208.53125 179.410156 L 209.824219 179.410156 L 209.824219 173.035156 L 212.183594 170.53125 L 216.394531 171.730469 L 216.394531 160.035156 L 218.230469 158.90625 L 223.863281 162.367188 L 223.863281 178.332031 L 225.035156 178.332031 L 225.035156 161.496094 L 227.128906 160.210938 L 227.128906 153.570312 L 228.179688 154.6875 L 228.179688 162.351562 L 229.628906 163.242188 L 229.628906 177.925781 L 230.832031 177.925781 L 230.832031 164.050781 L 234 161.289062 L 234 181.632812 L 234.824219 181.632812 L 234.824219 170.179688 L 239.957031 173.210938 L 239.957031 190.351562 L 134.957031 190.351562 L 134.957031 171.089844 L 138.226562 169.082031 L 142.394531 173.515625 L 142.394531 156.710938 L 144.652344 154.3125 L 148.273438 156.539062 L 148.273438 178.136719 L 149.074219 178.367188 L 149.074219 174.1875 L 150.214844 174.1875 L 150.214844 166.507812 L 151.984375 164.621094 L 151.984375 157.679688 L 156.65625 152.710938 Z M 161.683594 155.796875 " fill-opacity="1" fill-rule="evenodd"/><path fill="#09d1e3" d="M 202.425781 156.292969 C 194.191406 164.515625 180.71875 164.515625 172.488281 156.292969 C 164.253906 148.070312 164.253906 134.617188 172.488281 126.394531 C 180.71875 118.171875 194.191406 118.171875 202.425781 126.394531 C 210.65625 134.617188 210.65625 148.070312 202.425781 156.292969 M 210.363281 164.222656 L 187.457031 187.101562 L 164.546875 164.222656 C 151.949219 151.640625 151.949219 131.050781 164.546875 118.464844 C 177.148438 105.882812 197.765625 105.882812 210.363281 118.464844 C 222.964844 131.050781 222.964844 151.640625 210.363281 164.222656 Z M 210.363281 164.222656 " fill-opacity="1" fill-rule="evenodd"/><g clip-path="url(#7e2a58cf29)"><path fill="#09d1e3" d="M 134.957031 190.351562 L 239.957031 190.351562 C 249.035156 190.351562 256.457031 191.152344 256.457031 192.132812 C 256.457031 193.113281 249.035156 193.914062 239.957031 193.914062 L 134.957031 193.914062 C 125.878906 193.914062 118.457031 193.113281 118.457031 192.132812 C 118.457031 191.152344 125.878906 190.351562 134.957031 190.351562 " fill-opacity="1" fill-rule="evenodd"/></g><path fill="#09d1e3" d="M 164.203125 196.179688 L 210.710938 196.179688 C 219.789062 196.179688 227.210938 196.980469 227.210938 197.960938 C 227.210938 198.941406 219.789062 199.738281 210.710938 199.738281 L 164.203125 199.738281 C 155.125 199.738281 147.703125 198.941406 147.703125 197.960938 C 147.703125 196.980469 155.125 196.179688 164.203125 196.179688 " fill-opacity="1" fill-rule="evenodd"/><g clip-path="url(#1c6d2af9a1)"><path fill="#09d1e3" d="M 183.703125 202.007812 L 191.207031 202.007812 C 200.285156 202.007812 207.707031 202.808594 207.707031 203.785156 C 207.707031 204.765625 200.285156 205.566406 191.207031 205.566406 L 183.703125 205.566406 C 174.625 205.566406 167.203125 204.765625 167.203125 203.785156 C 167.203125 202.808594 174.625 202.007812 183.703125 202.007812 " fill-opacity="1" fill-rule="evenodd"/></g><g fill="#0e1550" fill-opacity="1"><g transform="translate(109.61822, 250.394375)"><g><path d="M 10.070312 0 C 10.589844 0 10.859375 -0.269531 10.859375 -0.789062 L 10.859375 -10.109375 L 17.613281 -10.109375 C 23.226562 -10.109375 26.660156 -13.949219 26.660156 -20.101562 C 26.660156 -25.175781 24.382812 -29.632812 16.03125 -29.632812 L 3.722656 -29.632812 C 3.203125 -29.632812 2.933594 -29.363281 2.933594 -28.839844 L 2.933594 -0.789062 C 2.933594 -0.269531 3.203125 0 3.722656 0 Z M 10.859375 -22.917969 L 14.660156 -22.917969 C 16.242188 -22.917969 18.769531 -22.917969 18.769531 -20.023438 C 18.769531 -16.820312 15.761719 -16.820312 14.660156 -16.820312 L 10.859375 -16.820312 Z M 10.859375 -22.917969 "/></g></g></g><g fill="#0e1550" fill-opacity="1"><g transform="translate(139.682225, 250.394375)"><g><path d="M 16.320312 -29.632812 C 15.722656 -30.847656 14.777344 -30.847656 14.179688 -29.632812 L 0.597656 -0.945312 C 0.347656 -0.386719 0.597656 0 1.175781 0 L 8.140625 0 C 8.566406 0 8.894531 -0.230469 9.046875 -0.636719 L 10.011719 -3.125 L 20.488281 -3.125 L 21.453125 -0.636719 C 21.605469 -0.230469 21.933594 0 22.359375 0 L 29.324219 0 C 29.902344 0 30.152344 -0.386719 29.902344 -0.945312 Z M 15.257812 -16.496094 L 18.171875 -9.046875 L 12.328125 -9.046875 Z M 15.257812 -16.496094 "/></g></g></g><g fill="#0e1550" fill-opacity="1"><g transform="translate(172.196261, 250.394375)"><g><path d="M 22.089844 -11.132812 C 25 -12.65625 26.660156 -15.820312 26.660156 -20.101562 C 26.660156 -25.175781 24.382812 -29.632812 16.03125 -29.632812 L 3.722656 -29.632812 C 3.203125 -29.632812 2.933594 -29.363281 2.933594 -28.839844 L 2.933594 -0.789062 C 2.933594 -0.269531 3.203125 0 3.722656 0 L 10.070312 0 C 10.589844 0 10.859375 -0.269531 10.859375 -0.789062 L 10.859375 -10.109375 L 14.199219 -10.109375 L 18.964844 -0.597656 C 19.15625 -0.191406 19.445312 0 19.871094 0 L 27.066406 0 C 27.664062 0 27.894531 -0.386719 27.625 -0.945312 Z M 14.660156 -22.917969 C 16.242188 -22.917969 18.769531 -22.917969 18.769531 -20.023438 C 18.769531 -16.820312 15.761719 -16.820312 14.660156 -16.820312 L 10.859375 -16.820312 L 10.859375 -22.917969 Z M 14.660156 -22.917969 "/></g></g></g><g fill="#0e1550" fill-opacity="1"><g transform="translate(203.494927, 250.394375)"><g><path d="M 10.109375 0 C 10.628906 0 10.898438 -0.269531 10.898438 -0.789062 L 10.898438 -13.003906 L 19.792969 -0.480469 C 20.023438 -0.15625 20.351562 0 20.738281 0 L 29.554688 0 C 30.191406 0 30.421875 -0.445312 30.019531 -0.945312 L 19.234375 -15.839844 L 30.191406 -28.648438 C 30.617188 -29.148438 30.421875 -29.632812 29.746094 -29.632812 L 21.605469 -29.632812 C 21.222656 -29.632812 20.894531 -29.515625 20.621094 -29.1875 L 10.898438 -18.019531 L 10.898438 -28.839844 C 10.898438 -29.363281 10.628906 -29.632812 10.109375 -29.632812 L 3.722656 -29.632812 C 3.203125 -29.632812 2.933594 -29.363281 2.933594 -28.839844 L 2.933594 -0.789062 C 2.933594 -0.269531 3.203125 0 3.722656 0 Z M 10.109375 0 "/></g></g></g><g fill="#0e1550" fill-opacity="1"><g transform="translate(236.722751, 250.394375)"><g><path d="M 13.773438 -6.714844 L 26.699219 -28.6875 C 27.027344 -29.1875 26.796875 -29.632812 26.160156 -29.632812 L 3.664062 -29.632812 C 3.164062 -29.632812 2.894531 -29.363281 2.894531 -28.839844 L 2.894531 -23.710938 C 2.894531 -23.1875 3.164062 -22.917969 3.664062 -22.917969 L 14.023438 -22.917969 L 1.136719 -0.945312 C 0.828125 -0.445312 1.0625 0 1.699219 0 L 26.582031 0 C 27.105469 0 27.375 -0.269531 27.375 -0.789062 L 27.375 -5.921875 C 27.375 -6.445312 27.105469 -6.714844 26.582031 -6.714844 Z M 13.773438 -6.714844 "/></g></g></g><g fill="#0e1550" fill-opacity="1"><g transform="translate(110.359934, 267.350397)"><g><path d="M 4.375 -4.5625 L 2.671875 -4.5625 L 2.671875 0 L 1.765625 0 L 1.765625 -4.5625 L 0.0625 -4.5625 L 0.0625 -5.375 L 4.375 -5.375 Z M 4.375 -4.5625 "/></g></g></g><g fill="#0e1550" fill-opacity="1"><g transform="translate(118.495557, 267.350397)"><g><path d="M 5.375 0 L 4.46875 0 L 4.46875 -2.234375 L 1.609375 -2.234375 L 1.609375 0 L 0.703125 0 L 0.703125 -5.375 L 1.609375 -5.375 L 1.609375 -3.046875 L 4.46875 -3.046875 L 4.46875 -5.375 L 5.375 -5.375 Z M 5.375 0 "/></g></g></g><g fill="#0e1550" fill-opacity="1"><g transform="translate(128.259849, 267.350397)"><g><path d="M 2.375 -6.71875 L 1.4375 -5.96875 L 0.640625 -5.96875 L 1.453125 -7.109375 Z M 1.609375 0 L 0.703125 0 L 0.703125 -5.375 L 1.609375 -5.375 Z M 1.609375 0 "/></g></g></g><g fill="#0e1550" fill-opacity="1"><g transform="translate(134.267451, 267.350397)"><g><path d="M 3.09375 -5.40625 C 3.46875 -5.40625 3.835938 -5.332031 4.203125 -5.1875 C 4.566406 -5.039062 4.878906 -4.835938 5.140625 -4.578125 L 4.609375 -3.90625 C 4.410156 -4.125 4.175781 -4.289062 3.90625 -4.40625 C 3.644531 -4.53125 3.378906 -4.59375 3.109375 -4.59375 C 2.566406 -4.59375 2.109375 -4.410156 1.734375 -4.046875 C 1.367188 -3.679688 1.1875 -3.234375 1.1875 -2.703125 C 1.1875 -2.171875 1.367188 -1.722656 1.734375 -1.359375 C 2.109375 -0.992188 2.566406 -0.8125 3.109375 -0.8125 C 3.660156 -0.8125 4.160156 -1.019531 4.609375 -1.4375 L 5.140625 -0.84375 C 4.867188 -0.570312 4.546875 -0.359375 4.171875 -0.203125 C 3.804688 -0.046875 3.4375 0.03125 3.0625 0.03125 C 2.269531 0.03125 1.601562 -0.226562 1.0625 -0.75 C 0.53125 -1.269531 0.265625 -1.921875 0.265625 -2.703125 C 0.265625 -3.460938 0.535156 -4.101562 1.078125 -4.625 C 1.628906 -5.144531 2.300781 -5.40625 3.09375 -5.40625 Z M 3.09375 -5.40625 "/></g></g></g><g fill="#0e1550" fill-opacity="1"><g transform="translate(143.309601, 267.350397)"><g><path d="M 5.375 0 L 4.46875 0 L 4.46875 -2.234375 L 1.609375 -2.234375 L 1.609375 0 L 0.703125 0 L 0.703125 -5.375 L 1.609375 -5.375 L 1.609375 -3.046875 L 4.46875 -3.046875 L 4.46875 -5.375 L 5.375 -5.375 Z M 5.375 0 "/></g></g></g><g fill="#0e1550" fill-opacity="1"><g transform="translate(153.073894, 267.350397)"><g/></g></g><g fill="#0e1550" fill-opacity="1"><g transform="translate(158.743476, 267.350397)"><g><path d="M 4.375 -4.5625 L 2.671875 -4.5625 L 2.671875 0 L 1.765625 0 L 1.765625 -4.5625 L 0.0625 -4.5625 L 0.0625 -5.375 L 4.375 -5.375 Z M 4.375 -4.5625 "/></g></g></g><g fill="#0e1550" fill-opacity="1"><g transform="translate(166.8791, 267.350397)"><g><path d="M 5.375 0 L 4.46875 0 L 4.46875 -2.234375 L 1.609375 -2.234375 L 1.609375 0 L 0.703125 0 L 0.703125 -5.375 L 1.609375 -5.375 L 1.609375 -3.046875 L 4.46875 -3.046875 L 4.46875 -5.375 L 5.375 -5.375 Z M 5.375 0 "/></g></g></g><g fill="#0e1550" fill-opacity="1"><g transform="translate(176.643393, 267.350397)"><g><path d="M 1.625 -5.96875 L 0.84375 -5.96875 L -0.09375 -6.734375 L 0.8125 -7.109375 Z M 1.609375 0 L 0.703125 0 L 0.703125 -5.375 L 1.609375 -5.375 Z M 1.609375 0 "/></g></g></g><g fill="#0e1550" fill-opacity="1"><g transform="translate(182.650997, 267.350397)"><g/></g></g><g fill="#0e1550" fill-opacity="1"><g transform="translate(188.320579, 267.350397)"><g><path d="M 3.09375 -5.40625 C 3.46875 -5.40625 3.835938 -5.332031 4.203125 -5.1875 C 4.566406 -5.039062 4.878906 -4.835938 5.140625 -4.578125 L 4.609375 -3.90625 C 4.410156 -4.125 4.175781 -4.289062 3.90625 -4.40625 C 3.644531 -4.53125 3.378906 -4.59375 3.109375 -4.59375 C 2.566406 -4.59375 2.109375 -4.410156 1.734375 -4.046875 C 1.367188 -3.679688 1.1875 -3.234375 1.1875 -2.703125 C 1.1875 -2.171875 1.367188 -1.722656 1.734375 -1.359375 C 2.109375 -0.992188 2.566406 -0.8125 3.109375 -0.8125 C 3.660156 -0.8125 4.160156 -1.019531 4.609375 -1.4375 L 5.140625 -0.84375 C 4.867188 -0.570312 4.546875 -0.359375 4.171875 -0.203125 C 3.804688 -0.046875 3.4375 0.03125 3.0625 0.03125 C 2.269531 0.03125 1.601562 -0.226562 1.0625 -0.75 C 0.53125 -1.269531 0.265625 -1.921875 0.265625 -2.703125 C 0.265625 -3.460938 0.535156 -4.101562 1.078125 -4.625 C 1.628906 -5.144531 2.300781 -5.40625 3.09375 -5.40625 Z M 3.09375 -5.40625 "/></g></g></g><g fill="#0e1550" fill-opacity="1"><g transform="translate(197.362729, 267.350397)"><g><path d="M 1.078125 -4.625 C 1.628906 -5.144531 2.304688 -5.40625 3.109375 -5.40625 C 3.921875 -5.40625 4.597656 -5.144531 5.140625 -4.625 C 5.691406 -4.101562 5.96875 -3.457031 5.96875 -2.6875 C 5.96875 -1.914062 5.691406 -1.269531 5.140625 -0.75 C 4.597656 -0.226562 3.921875 0.03125 3.109375 0.03125 C 2.304688 0.03125 1.628906 -0.226562 1.078125 -0.75 C 0.535156 -1.269531 0.265625 -1.914062 0.265625 -2.6875 C 0.265625 -3.457031 0.535156 -4.101562 1.078125 -4.625 Z M 3.125 -4.59375 C 2.59375 -4.59375 2.132812 -4.40625 1.75 -4.03125 C 1.375 -3.664062 1.1875 -3.21875 1.1875 -2.6875 C 1.1875 -2.15625 1.375 -1.703125 1.75 -1.328125 C 2.132812 -0.960938 2.585938 -0.78125 3.109375 -0.78125 C 3.640625 -0.78125 4.09375 -0.960938 4.46875 -1.328125 C 4.84375 -1.703125 5.03125 -2.15625 5.03125 -2.6875 C 5.03125 -3.21875 4.84375 -3.664062 4.46875 -4.03125 C 4.09375 -4.40625 3.644531 -4.59375 3.125 -4.59375 Z M 3.125 -4.59375 "/></g></g></g><g fill="#0e1550" fill-opacity="1"><g transform="translate(207.27298, 267.350397)"><g><path d="M 0.703125 -5.375 L 2.90625 -5.375 C 3.71875 -5.375 4.382812 -5.117188 4.90625 -4.609375 C 5.4375 -4.109375 5.703125 -3.46875 5.703125 -2.6875 C 5.703125 -1.90625 5.4375 -1.257812 4.90625 -0.75 C 4.375 -0.25 3.703125 0 2.890625 0 L 0.703125 0 Z M 1.609375 -4.5625 L 1.609375 -0.8125 L 2.9375 -0.8125 C 3.46875 -0.8125 3.90625 -0.988281 4.25 -1.34375 C 4.601562 -1.695312 4.78125 -2.144531 4.78125 -2.6875 C 4.78125 -3.226562 4.597656 -3.675781 4.234375 -4.03125 C 3.878906 -4.382812 3.429688 -4.5625 2.890625 -4.5625 Z M 1.609375 -4.5625 "/></g></g></g><g fill="#0e1550" fill-opacity="1"><g transform="translate(216.91435, 267.350397)"><g><path d="M 4.546875 -4.5625 L 1.609375 -4.5625 L 1.609375 -3.109375 L 4.25 -3.109375 L 4.25 -2.296875 L 1.609375 -2.296875 L 1.609375 -0.8125 L 4.640625 -0.8125 L 4.640625 0 L 0.703125 0 L 0.703125 -5.375 L 4.546875 -5.375 Z M 4.546875 -4.5625 "/></g></g></g><g fill="#0e1550" fill-opacity="1"><g transform="translate(225.641517, 267.350397)"><g/></g></g><g fill="#0e1550" fill-opacity="1"><g transform="translate(231.311093, 267.350397)"><g><path d="M 4.375 -4.5625 L 2.671875 -4.5625 L 2.671875 0 L 1.765625 0 L 1.765625 -4.5625 L 0.0625 -4.5625 L 0.0625 -5.375 L 4.375 -5.375 Z M 4.375 -4.5625 "/></g></g></g><g fill="#0e1550" fill-opacity="1"><g transform="translate(239.446712, 267.350397)"><g><path d="M 4.546875 -4.5625 L 1.609375 -4.5625 L 1.609375 -3.109375 L 4.25 -3.109375 L 4.25 -2.296875 L 1.609375 -2.296875 L 1.609375 -0.8125 L 4.640625 -0.8125 L 4.640625 0 L 0.703125 0 L 0.703125 -5.375 L 4.546875 -5.375 Z M 4.546875 -4.5625 "/></g></g></g><g fill="#0e1550" fill-opacity="1"><g transform="translate(248.173879, 267.350397)"><g><path d="M 4.1875 -1.21875 L 1.46875 -1.21875 L 0.953125 0 L 0 0 L 2.390625 -5.375 L 3.3125 -5.375 L 5.671875 0 L 4.703125 0 Z M 3.84375 -2.015625 L 2.828125 -4.40625 L 1.8125 -2.015625 Z M 3.84375 -2.015625 "/></g></g></g><g fill="#0e1550" fill-opacity="1"><g transform="translate(257.531003, 267.350397)"><g><path d="M 6.390625 0 L 5.5625 0 L 5.546875 -4.015625 L 3.84375 -0.5625 L 3.265625 -0.5625 L 1.5625 -4.015625 L 1.5625 0 L 0.703125 0 L 0.703125 -5.375 L 1.78125 -5.375 L 3.5625 -1.8125 L 5.328125 -5.375 L 6.390625 -5.375 Z M 6.390625 0 "/></g></g></g></svg>